<?xml version="1.0" encoding="UTF-8" standalone="no"?>
<!DOCTYPE svg PUBLIC "-//W3C//DTD SVG 1.1//EN" "http://www.w3.org/Graphics/SVG/1.1/DTD/svg11.dtd">
<svg width="100%" height="100%" viewBox="0 0 1150 300" version="1.1" xmlns="http://www.w3.org/2000/svg" xmlns:xlink="http://www.w3.org/1999/xlink" xml:space="preserve" xmlns:serif="http://www.serif.com/" style="fill-rule:evenodd;clip-rule:evenodd;stroke-linejoin:round;stroke-miterlimit:2;">
    <rect id="Artboard1" x="0" y="0" width="1150" height="300" style="fill:none;"/>
    <g id="Artboard11" serif:id="Artboard1">
        <g>
            <g transform="matrix(344.475,0,0,344.475,30.1181,267.042)">
                <path d="M0.377,-0.658L0.377,-0.655C0.421,-0.629 0.415,-0.593 0.415,-0.547L0.415,-0.415C0.373,-0.452 0.317,-0.473 0.261,-0.473C0.124,-0.473 0.024,-0.364 0.024,-0.229C0.024,-0.08 0.131,0.013 0.277,0.013C0.295,0.013 0.312,0.013 0.329,0.008L0.388,-0.082C0.361,-0.065 0.334,-0.053 0.302,-0.053C0.197,-0.053 0.125,-0.142 0.125,-0.243C0.125,-0.334 0.19,-0.407 0.27,-0.407C0.323,-0.407 0.374,-0.383 0.399,-0.335C0.418,-0.298 0.415,-0.254 0.415,-0.214L0.415,-0L0.544,-0L0.544,-0.003C0.5,-0.027 0.506,-0.064 0.506,-0.11L0.506,-0.674L0.503,-0.674C0.492,-0.658 0.468,-0.658 0.445,-0.658L0.377,-0.658Z" style="fill:rgb(0,128,188);fill-rule:nonzero;"/>
            </g>
            <g transform="matrix(344.475,0,0,344.475,229.914,267.042)">
                <path d="M0.5,-0.246C0.504,-0.375 0.411,-0.473 0.275,-0.473C0.126,-0.473 0.025,-0.372 0.025,-0.233C0.025,-0.094 0.142,0.013 0.312,0.013C0.359,0.013 0.407,0.006 0.45,-0.012L0.5,-0.106L0.497,-0.106C0.451,-0.07 0.393,-0.053 0.333,-0.053C0.22,-0.053 0.135,-0.124 0.133,-0.246L0.5,-0.246ZM0.137,-0.304C0.149,-0.367 0.199,-0.407 0.266,-0.407C0.338,-0.407 0.384,-0.374 0.395,-0.304L0.137,-0.304Z" style="fill:rgb(0,128,188);fill-rule:nonzero;"/>
            </g>
            <g transform="matrix(344.475,0,0,344.475,409.04,267.042)">
                <path d="M0.023,-0.394L0.071,-0.394L0.071,-0.11C0.071,-0.064 0.077,-0.027 0.033,-0.003L0.033,-0L0.2,-0L0.2,-0.003C0.156,-0.028 0.162,-0.064 0.162,-0.11L0.162,-0.394L0.264,-0.394C0.276,-0.394 0.291,-0.391 0.295,-0.38L0.298,-0.38L0.298,-0.46L0.162,-0.46C0.162,-0.56 0.157,-0.608 0.249,-0.608C0.278,-0.608 0.308,-0.603 0.333,-0.59L0.333,-0.11C0.333,-0.064 0.339,-0.027 0.295,-0.003L0.295,-0L0.462,-0L0.462,-0.003C0.418,-0.027 0.424,-0.064 0.424,-0.11L0.424,-0.674L0.421,-0.674C0.411,-0.663 0.394,-0.656 0.378,-0.656C0.347,-0.656 0.319,-0.674 0.266,-0.674C0.206,-0.674 0.148,-0.654 0.107,-0.608C0.068,-0.564 0.071,-0.525 0.071,-0.46L0.023,-0.394Z" style="fill:rgb(86,86,86);fill-rule:nonzero;"/>
            </g>
            <g transform="matrix(344.475,0,0,344.475,581.278,267.042)">
                <path d="M0.276,0.013C0.417,0.013 0.537,-0.091 0.537,-0.235C0.537,-0.303 0.506,-0.369 0.455,-0.414C0.407,-0.456 0.352,-0.473 0.288,-0.473C0.144,-0.473 0.023,-0.376 0.023,-0.226C0.023,-0.084 0.139,0.013 0.276,0.013ZM0.281,-0.053C0.179,-0.053 0.124,-0.152 0.124,-0.244C0.124,-0.334 0.184,-0.407 0.277,-0.407C0.384,-0.407 0.436,-0.311 0.436,-0.214C0.436,-0.124 0.373,-0.053 0.281,-0.053Z" style="fill:rgb(86,86,86);fill-rule:nonzero;"/>
            </g>
            <g transform="matrix(344.475,0,0,344.475,774.184,267.042)">
                <path d="M0.415,-0.461C0.38,-0.469 0.343,-0.473 0.307,-0.473C0.156,-0.473 0.022,-0.39 0.022,-0.218C0.022,-0.088 0.142,0.013 0.296,0.013C0.34,0.013 0.386,0.009 0.428,-0.007L0.48,-0.102L0.477,-0.102C0.438,-0.073 0.382,-0.053 0.331,-0.053C0.22,-0.053 0.123,-0.129 0.123,-0.244C0.123,-0.339 0.193,-0.407 0.29,-0.407C0.335,-0.407 0.383,-0.391 0.412,-0.358L0.415,-0.358L0.415,-0.461Z" style="fill:rgb(86,86,86);fill-rule:nonzero;"/>
            </g>
            <g transform="matrix(344.475,0,0,344.475,932.642,267.042)">
                <path d="M0.029,-0.658L0.029,-0.655C0.072,-0.63 0.066,-0.593 0.066,-0.547L0.066,-0.111C0.066,-0.065 0.072,-0.028 0.029,-0.003L0.029,-0L0.196,-0L0.196,-0.003C0.151,-0.028 0.157,-0.065 0.157,-0.111L0.157,-0.674L0.154,-0.674C0.141,-0.659 0.117,-0.658 0.095,-0.658L0.029,-0.658ZM0.324,-0.056C0.343,-0.029 0.368,-0 0.426,-0L0.504,-0C0.459,-0.028 0.429,-0.071 0.398,-0.112L0.276,-0.267L0.443,-0.46L0.291,-0.46L0.291,-0.457C0.301,-0.451 0.31,-0.442 0.31,-0.428C0.31,-0.403 0.274,-0.365 0.259,-0.348L0.176,-0.257L0.324,-0.056Z" style="fill:rgb(86,86,86);fill-rule:nonzero;"/>
            </g>
        </g>
    </g>
</svg>
