<?xml version="1.0" encoding="UTF-8" standalone="no"?>
<!DOCTYPE svg PUBLIC "-//W3C//DTD SVG 1.1//EN" "http://www.w3.org/Graphics/SVG/1.1/DTD/svg11.dtd">
<svg width="100%" height="100%" viewBox="0 0 1150 300" version="1.1" xmlns="http://www.w3.org/2000/svg" xmlns:xlink="http://www.w3.org/1999/xlink" xml:space="preserve" xmlns:serif="http://www.serif.com/" style="fill-rule:evenodd;clip-rule:evenodd;stroke-linejoin:round;stroke-miterlimit:2;">
    <g>
        <text x="30.118px" y="267.042px" style="font-family:'FrizQuadrataStd', 'Friz Quadrata Std', sans-serif;font-weight:500;font-size:344.475px;fill:rgb(0,128,188);">de</text>
        <g transform="matrix(344.475,0,0,344.475,409.04,267.042)">
            <path d="M0.023,-0.394L0.071,-0.394L0.071,-0.11C0.071,-0.064 0.077,-0.027 0.033,-0.003L0.033,-0L0.2,-0L0.2,-0.003C0.156,-0.028 0.162,-0.064 0.162,-0.11L0.162,-0.394L0.264,-0.394C0.276,-0.394 0.291,-0.391 0.295,-0.38L0.298,-0.38L0.298,-0.46L0.162,-0.46C0.162,-0.56 0.157,-0.608 0.249,-0.608C0.278,-0.608 0.308,-0.603 0.333,-0.59L0.333,-0.11C0.333,-0.064 0.339,-0.027 0.295,-0.003L0.295,-0L0.462,-0L0.462,-0.003C0.418,-0.027 0.424,-0.064 0.424,-0.11L0.424,-0.674L0.421,-0.674C0.411,-0.663 0.394,-0.656 0.378,-0.656C0.347,-0.656 0.319,-0.674 0.266,-0.674C0.206,-0.674 0.148,-0.654 0.107,-0.608C0.068,-0.564 0.071,-0.525 0.071,-0.46L0.023,-0.394Z" style="fill:rgb(37,37,37);fill-rule:nonzero;"/>
        </g>
        <g transform="matrix(344.475,0,0,344.475,409.04,267.042)">
        </g>
        <g transform="matrix(344.475,0,0,344.475,498.604,267.042)">
        </g>
        <g transform="matrix(344.475,0,0,344.475,1097.99,267.042)">
        </g>
        <text x="581.278px" y="267.042px" style="font-family:'FrizQuadrataStd', 'Friz Quadrata Std', sans-serif;font-weight:500;font-size:344.475px;fill:rgb(37,37,37);"><tspan x="581.278px " y="267.042px ">o</tspan>ck</text>
    </g>
</svg>
